<?xml version="1.0" standalone="no"?><!DOCTYPE svg PUBLIC "-//W3C//DTD SVG 1.1//EN" "http://www.w3.org/Graphics/SVG/1.1/DTD/svg11.dtd"><svg t="1500261765773" class="icon" style="" viewBox="0 0 1024 1024" version="1.1" xmlns="http://www.w3.org/2000/svg" p-id="2099" xmlns:xlink="http://www.w3.org/1999/xlink" width="200" height="200"><defs><style type="text/css"></style></defs><path d="M700.577936 148.642388c0 11.267625-9.126868 20.404726-20.404726 20.404726s-20.404726-9.137101-20.404726-20.404726c0-11.267625 9.126868-20.404726 20.404726-20.404726S700.577936 137.374764 700.577936 148.642388z" p-id="2100"></path><path d="M823.008336 271.071765c0 11.267625-9.126868 20.404726-20.404726 20.404726s-20.404726-9.137101-20.404726-20.404726 9.126868-20.404726 20.404726-20.404726C813.880445 250.66704 823.008336 259.804141 823.008336 271.071765z" p-id="2101"></path><path d="M578.148559 271.071765c0 11.267625-9.126868 20.404726-20.404726 20.404726s-20.404726-9.137101-20.404726-20.404726 9.126868-20.404726 20.404726-20.404726C569.021691 250.66704 578.148559 259.804141 578.148559 271.071765z" p-id="2102"></path><path d="M516.933359 332.286965c0 11.267625-9.126868 20.404726-20.404726 20.404726s-20.404726-9.137101-20.404726-20.404726 9.126868-20.404726 20.404726-20.404726S516.933359 321.019341 516.933359 332.286965z" p-id="2103"></path><path d="M578.148559 393.501142c0 11.267625-9.126868 20.404726-20.404726 20.404726s-20.404726-9.137101-20.404726-20.404726c0-11.267625 9.126868-20.404726 20.404726-20.404726S578.148559 382.234541 578.148559 393.501142z" p-id="2104"></path><path d="M639.363759 209.856565c0 11.267625-9.126868 20.404726-20.404726 20.404726s-20.404726-9.137101-20.404726-20.404726c0-11.267625 9.126868-20.404726 20.404726-20.404726C630.235868 189.45184 639.363759 198.588941 639.363759 209.856565z" p-id="2105"></path><path d="M761.793136 209.856565c0 11.267625-9.126868 20.404726-20.404726 20.404726s-20.404726-9.137101-20.404726-20.404726c0-11.267625 9.126868-20.404726 20.404726-20.404726S761.793136 198.588941 761.793136 209.856565z" p-id="2106"></path><path d="M700.577936 393.501142c0 11.267625-9.126868 20.404726-20.404726 20.404726s-20.404726-9.137101-20.404726-20.404726c0-11.267625 9.126868-20.404726 20.404726-20.404726S700.577936 382.234541 700.577936 393.501142z" p-id="2107"></path><path d="M639.363759 332.286965c0 11.267625-9.126868 20.404726-20.404726 20.404726s-20.404726-9.137101-20.404726-20.404726 9.126868-20.404726 20.404726-20.404726C630.235868 311.88224 639.363759 321.019341 639.363759 332.286965z" p-id="2108"></path><path d="M884.222513 332.286965c0 11.267625-9.126868 20.404726-20.404726 20.404726s-20.404726-9.137101-20.404726-20.404726 9.126868-20.404726 20.404726-20.404726S884.222513 321.019341 884.222513 332.286965z" p-id="2109"></path><path d="M639.363759 454.716342c0 11.267625-9.126868 20.404726-20.404726 20.404726s-20.404726-9.137101-20.404726-20.404726 9.126868-20.404726 20.404726-20.404726C630.235868 434.311617 639.363759 443.448718 639.363759 454.716342z" p-id="2110"></path><path d="M761.793136 454.716342c0 11.267625-9.126868 20.404726-20.404726 20.404726s-20.404726-9.137101-20.404726-20.404726 9.126868-20.404726 20.404726-20.404726C752.666268 434.311617 761.793136 443.448718 761.793136 454.716342z" p-id="2111"></path><path d="M968.374098 340.350618l-252.613368-255.171634c-11.614525-11.747555-27.086915-18.21485-43.551912-18.21485l-0.010233 0c-16.464997 0-31.927153 6.457062-43.551912 18.194384l-542.771841 548.277228c-23.832801 24.088628-23.822568 63.301721 0.030699 87.410815l195.195657 197.180871c7.951089 8.032954 20.916379 8.094352 28.949332 0.143263 8.032954-7.951089 8.094352-20.916379 0.143263-28.949332l-195.195657-197.160405c-8.145517-8.237615-8.15575-21.612227-0.030699-29.829376l258.773671-261.393335c0.951675 1.596358 2.159176 3.090385 3.591805 4.420683l289.257963 269.170462-212.643028 214.802204c-5.812379 5.863545-7.521301 14.653745-4.338818 22.277376 3.172249 7.623631 10.621918 12.586666 18.879999 12.586666l374.929158 0c11.2973 0 20.466124-9.168824 20.466124-20.466124 0-11.307533-9.168824-20.466124-20.466124-20.466124l-325.871859 0 450.838012-455.412191C992.217133 403.631874 992.217133 364.41878 968.374098 340.350618zM944.868755 388.701836c-2.148943-8.953929-10.212596-15.60542-19.831674-15.60542-11.287067 0-20.404726 9.138124-20.404726 20.404726 0 11.092639 8.831132 20.1182 19.872606 20.384259l-40.277332 40.696888c-0.071631-11.205203-9.168824-20.271696-20.404726-20.271696-11.287067 0-20.404726 9.138124-20.404726 20.404726s9.117658 20.404726 20.404726 20.404726l0.071631 0-40.901549 41.321104c0.010233-0.173962 0.010233-0.337691 0.010233-0.511653 0-11.266601-9.117658-20.404726-20.404726-20.404726-11.276834 0-20.404726 9.138124-20.404726 20.404726s9.127891 20.404726 20.404726 20.404726c0.23536 0 0.480954 0 0.716314-0.020466l-41.566698 41.986253c0.030699-0.388856 0.040932-0.76748 0.040932-1.156336 0-11.266601-9.127891-20.404726-20.404726-20.404726s-20.404726 9.138124-20.404726 20.404726 9.127891 20.404726 20.404726 20.404726c0.460488 0 0.910743-0.010233 1.360997-0.051165l-42.252313 42.682102c0.051165-0.603751 0.081864-1.207501 0.081864-1.821485 0-11.266601-9.127891-20.404726-20.404726-20.404726-3.980661 0-7.695263 1.13587-10.82658 3.110851l-34.05563-31.691793c2.558265-3.40761 4.072759-7.644097 4.072759-12.228509 0-11.266601-9.127891-20.404726-20.404726-20.404726-5.116531 0-9.803273 1.882883-13.374612 4.993734l-33.564443-31.231305c3.786233-3.694135 6.129604-8.861832 6.129604-14.57188 0-11.266601-9.127891-20.404726-20.404726-20.404726-6.242168 0-11.82942 2.803859-15.564487 7.214309l-33.769105-31.435966c5.167696-3.694135 8.524141-9.752108 8.524141-16.587793 0-11.266601-9.127891-20.404726-20.404726-20.404726-7.367805 0-13.824867 3.898797-17.406438 9.752108l-34.700313-32.305777c6.702656-3.335978 11.2973-10.263761 11.2973-18.255783 0-11.266601-9.127891-20.404726-20.404726-20.404726-8.524141 0-15.820314 5.218862-18.869766 12.637832l-11.225669-10.447956c-1.105171-1.033539-2.302439-1.913583-3.561106-2.650363l256.072143-258.671341c1.934049-1.954515 4.195555-3.479241 6.641257-4.502547 2.455935-1.033539 5.096065-1.565658 7.828292-1.565658 5.454222 0 10.601452 2.159176 14.46955 6.078439l252.613368 255.171634C944.520831 374.447181 946.393481 381.876384 944.868755 388.701836z" p-id="2112"></path><path d="M700.574866 515.929496c0 11.266601-9.127891 20.404726-20.404726 20.404726s-20.404726-9.138124-20.404726-20.404726 9.127891-20.404726 20.404726-20.404726C691.446975 495.52477 700.574866 504.662895 700.574866 515.929496z" p-id="2113"></path><path d="M823.00322 393.501142c0 11.266601-9.117658 20.404726-20.404726 20.404726-11.276834 0-20.404726-9.138124-20.404726-20.404726s9.127891-20.404726 20.404726-20.404726C813.885562 373.096417 823.00322 382.234541 823.00322 393.501142z" p-id="2114"></path><path d="M761.789043 332.286965c0 11.266601-9.127891 20.404726-20.404726 20.404726s-20.404726-9.138124-20.404726-20.404726 9.127891-20.404726 20.404726-20.404726C752.661152 311.88224 761.789043 321.020364 761.789043 332.286965z" p-id="2115"></path><path d="M700.574866 271.072789c0 11.266601-9.127891 20.404726-20.404726 20.404726s-20.404726-9.138124-20.404726-20.404726 9.127891-20.404726 20.404726-20.404726C691.446975 250.668063 700.574866 259.806187 700.574866 271.072789z" p-id="2116"></path></svg>